<!-- 其他 -->
<svg t="1691381631008" class="icon" viewBox="0 0 1024 1024" version="1.1" xmlns="http://www.w3.org/2000/svg" p-id="70141" data-spm-anchor-id="a313x.search_index.0.i13.36a13a81FwdgXL" width="128" height="128"><path d="M264.192 797.184A43.008 43.008 0 0 1 221.866667 841.898667h-46.08a43.008 43.008 0 0 1-42.837334-44.714667v-40.96h131.754667v40.96zM132.437333 354.645333h131.754667v356.864H132.437333zM264.192 308.053333l-131.754667 1.365334v-46.08a43.008 43.008 0 0 1 42.837334-44.714667H221.866667a43.178667 43.178667 0 0 1 42.837333 44.714667v44.714666zM489.472 797.184a44.714667 44.714667 0 0 1-44.714667 44.714667h-92.16a41.642667 41.642667 0 0 1-40.96-44.714667v-40.448h177.834667zM489.472 710.144H311.637333V263.850667h177.834667zM489.472 219.648l-177.834667-1.365333v-46.592a41.642667 41.642667 0 0 1 40.96-44.714667h92.16a44.714667 44.714667 0 0 1 44.714667 44.714667v47.957333zM757.589333 798.549333a44.714667 44.714667 0 0 1-44.714666 44.714667h-134.997334a44.714667 44.714667 0 0 1-44.714666-44.714667V263.850667a44.714667 44.714667 0 0 1 44.714666-44.714667h134.997334a44.714667 44.714667 0 0 1 44.714666 44.714667zM891.562667 798.549333a42.325333 42.325333 0 0 1-41.813334 44.714667h-6.997333A39.424 39.424 0 0 1 802.133333 800.426667v-88.405334l88.917334-1.877333v88.405333zM891.562667 663.210667L802.133333 665.6v-131.754667h88.917334zM891.562667 486.229333H802.133333v-87.893333a42.666667 42.666667 0 0 1 40.106667-46.592h6.997333a42.325333 42.325333 0 0 1 41.813334 44.714667z" fill="#11CD6E" p-id="70142" data-spm-anchor-id="a313x.search_index.0.i12.36a13a81FwdgXL" class=""></path></svg>