<!-- 同步 -->
<svg t="1691121265297" class="icon" viewBox="0 0 1024 1024" version="1.1" xmlns="http://www.w3.org/2000/svg" p-id="1492" width="16" height="16"><path d="M864.149339 400.151609C813.744345 243.48957 668.570965 143.773498 512.38374 143.886061L512.38374 64.059991l-175.399799 101.498672 175.399799 101.499695 0-77.015048c136.672776-0.106424 263.711124 87.161129 307.817668 224.248344 38.369889 119.258151 3.770883 244.487294-79.016635 327.46003l29.769001 35.477003C867.643929 682.440857 908.443148 537.820062 864.149339 400.151609zM511.103584 836.490396c-136.048559-0.589424-262.247796-87.701434-306.178331-224.239134-38.294165-119.020744-3.904936-243.988943 78.528518-326.962703l-29.77821-35.488259c-96.333022 94.796016-136.916323 239.157915-92.699262 376.589984C211.206306 782.504854 355.541599 882.072547 511.103584 882.656855l0 76.804247 175.399799-101.499695-175.399799-101.498672L511.103584 836.490396z" fill="#11CD6E" p-id="1493"></path></svg>