<!-- 转让管理，暂未使用 -->
<svg t="1691381493599" class="icon" viewBox="0 0 1024 1024" version="1.1" xmlns="http://www.w3.org/2000/svg" p-id="66410" width="128" height="128"><path d="M512 73.142857c-120.685714 0-235.885714 49.371429-318.171429 137.142857l3.657143-71.314285-73.142857-3.657143-7.314286 159.085714c-1.828571 20.114286 14.628571 36.571429 34.742858 38.4l159.085714 7.314286 3.657143-73.142857-71.314286-3.657143C312.685714 190.171429 409.6 146.285714 512 146.285714c201.142857 0 365.714286 164.571429 365.714286 365.714286 0 20.114286-1.828571 40.228571-5.485715 60.342857l71.314286 12.8c3.657143-23.771429 5.485714-47.542857 5.485714-73.142857C950.857143 270.628571 753.371429 73.142857 512 73.142857zM841.142857 736.914286l-157.257143-27.428572-12.8 71.314286 73.142857 12.8c-65.828571 53.028571-146.285714 84.114286-232.228571 84.114286-201.142857 0-365.714286-164.571429-365.714286-365.714286v-12.8l-73.142857-1.828571v14.628571c0 241.371429 197.485714 438.857143 438.857143 438.857143 98.742857 0 193.828571-32.914286 270.628571-93.257143l-10.971428 65.828571 71.314286 12.8 27.428571-157.257142c1.828571-9.142857 0-20.114286-5.485714-27.428572-5.485714-7.314286-14.628571-12.8-23.771429-14.628571z" fill="#4D4C4C" p-id="66411"></path><path d="M724.114286 367.542857L530.285714 256c-10.971429-7.314286-25.6-7.314286-36.571428 0l-193.828572 111.542857c-10.971429 7.314286-18.285714 18.285714-18.285714 31.085714v224.914286c0 12.8 7.314286 25.6 18.285714 31.085714L493.714286 768c5.485714 3.657143 12.8 5.485714 18.285714 5.485714s12.8-1.828571 18.285714-5.485714l193.828572-111.542857c10.971429-7.314286 18.285714-18.285714 18.285714-31.085714V400.457143c0-12.8-7.314286-25.6-18.285714-32.914286z m-104.228572 250.514286L512 554.057143l-107.885714 62.171428-27.428572-47.542857 107.885715-62.171428v-124.342857h54.857142v124.342857l107.885715 62.171428-27.428572 49.371429z" fill="#4D4C4C" p-id="11CD6E"></path></svg>